<svg width="24" height="19" viewBox="0 0 24 19" fill="none" xmlns="http://www.w3.org/2000/svg">
<rect x="2" y="6" width="3" height="2" fill="#494949"/>
<rect x="10" y="12" width="8" height="2" transform="rotate(180 10 12)" fill="#494949"/>
<rect x="10" y="16" width="8" height="2" transform="rotate(180 10 16)" fill="#494949"/>
<path d="M15.3725 13.0546C18.464 12.2262 20.2986 9.04858 19.4702 5.95714C18.6419 2.86569 15.4643 1.03109 12.3728 1.85944C9.28137 2.68779 7.44677 5.86541 8.27512 8.95686C9.10347 12.0483 12.2811 13.8829 15.3725 13.0546Z" stroke="white" stroke-width="2"/>
<path d="M17.5384 6.47477C18.0809 8.49929 16.8794 10.5802 14.8549 11.1227C12.8304 11.6652 10.7494 10.4637 10.207 8.43922C9.6645 6.41471 10.8659 4.33376 12.8905 3.79129C14.915 3.24882 16.9959 4.45026 17.5384 6.47477Z" stroke="#494949" stroke-width="2"/>
<mask id="path-6-inside-1" fill="white">
<path d="M17.1348 9.75L20.8598 13.475L19.4456 14.8892L15.7206 11.1642L17.1348 9.75Z"/>
</mask>
<path d="M17.1348 9.75L20.8598 13.475L19.4456 14.8892L15.7206 11.1642L17.1348 9.75Z" fill="#494949"/>
<path d="M17.1348 9.75L18.549 8.33579L17.1348 6.92157L15.7206 8.33579L17.1348 9.75ZM20.8598 13.475L22.274 14.8892L23.6882 13.475L22.274 12.0608L20.8598 13.475ZM19.4456 14.8892L18.0314 16.3034L19.4456 17.7177L20.8598 16.3034L19.4456 14.8892ZM15.7206 11.1642L14.3063 9.75L12.8921 11.1642L14.3063 12.5784L15.7206 11.1642ZM15.7206 11.1642L19.4456 14.8892L22.274 12.0608L18.549 8.33579L15.7206 11.1642ZM19.4456 12.0608L18.0314 13.475L20.8598 16.3034L22.274 14.8892L19.4456 12.0608ZM20.8598 13.475L17.1348 9.75L14.3063 12.5784L18.0314 16.3034L20.8598 13.475ZM17.1348 12.5784L18.549 11.1642L15.7206 8.33579L14.3063 9.75L17.1348 12.5784Z" fill="#494949" mask="url(#path-6-inside-1)"/>
</svg>
